<svg xmlns="http://www.w3.org/2000/svg" width="3000" height="3000" fill="none" viewBox="0 0 3000 3000" id="digital-contract"><path fill="#E7E8FF" d="M239.305 1832.39C116.313 2017.78 81.427 2186.24 90.5894 2325.55C107.143 2577.23 380.834 2681.54 633.071 2681.54H2319.12C2460.93 2681.54 2585.63 2574.29 2639.29 2443.03C2758.56 2151.3 2970.1 1779.45 2832.56 1423.55C2653.71 960.789 2389.92 1046.15 2054.58 646.293C1719.25 246.433 1312.38 237.447 816.082 560.929C319.788 884.412 579.11 1320.21 239.305 1832.39Z"></path><path fill="#fff" d="M1223.23 466.803C1223.23 391.412 1284.15 330.295 1359.3 330.295H2375.89C2451.04 330.295 2511.96 391.412 2511.96 466.803V2537C2511.96 2612.39 2451.04 2673.51 2375.89 2673.51H1359.3C1284.15 2673.51 1223.23 2612.39 1223.23 2537V466.803Z"></path><path fill="#032068" fill-rule="evenodd" d="M1215.22 466.803C1215.22 386.977 1279.73 322.265 1359.3 322.265H2375.89C2455.46 322.265 2519.97 386.977 2519.97 466.803V2537C2519.97 2616.82 2455.46 2681.54 2375.89 2681.54H1359.3C1279.73 2681.54 1215.22 2616.82 1215.22 2537V466.803ZM1359.3 338.325C1288.57 338.325 1231.23 395.846 1231.23 466.803V2537C1231.23 2607.95 1288.57 2665.48 1359.3 2665.48H2375.89C2446.62 2665.48 2503.96 2607.95 2503.96 2537V466.803C2503.96 395.846 2446.62 338.325 2375.89 338.325H1359.3Z" clip-rule="evenodd"></path><path fill="#E7E8FF" d="M1603.68 2278.58C1603.68 2256.4 1621.6 2238.43 1643.7 2238.43H2103.37C2125.48 2238.43 2143.39 2256.4 2143.39 2278.58V2313.66C2143.39 2335.84 2125.48 2353.81 2103.37 2353.81H1643.7C1621.6 2353.81 1603.68 2335.84 1603.68 2313.66V2278.58Z"></path><path fill="#032068" d="M1602.37 391.978L1569.58 330.293H2165.62L2125.77 396.914C2105.52 430.775 2069.04 451.493 2029.68 451.493H1701.25C1659.87 451.493 1621.85 428.611 1602.37 391.978Z"></path><path fill="#032068" d="M2479.75 378.774H1255.45C1297.33 336.758 1337.33 328.947 1352.1 330.294H2383.09C2434.64 330.294 2469.01 362.614 2479.75 378.774zM2479.75 2625.02H1255.45C1297.33 2667.04 1337.33 2674.85 1352.1 2673.5H2383.09C2434.64 2673.5 2469.01 2641.18 2479.75 2625.02z"></path><path fill="#E7E8FF" fill-rule="evenodd" d="M2015.1 959.482H1453.27V943.423H2015.1V959.482zM2284.96 817.471H1453.27V801.412H2284.96V817.471z" clip-rule="evenodd"></path><path fill="#F4AD5E" d="M1736.4 1985.68C1736.4 1963.51 1754.32 1945.53 1776.42 1945.53H1811.4C1833.5 1945.53 1851.42 1963.51 1851.42 1985.68V2020.77C1851.42 2042.94 1833.5 2060.91 1811.4 2060.91H1776.42C1754.32 2060.91 1736.4 2042.94 1736.4 2020.77V1985.68Z"></path><path fill="#E7E8FF" fill-rule="evenodd" d="M1940.74 1985.68C1940.74 1959.07 1962.24 1937.5 1988.77 1937.5H2023.74C2050.27 1937.5 2071.77 1959.07 2071.77 1985.68V2020.77C2071.77 2047.37 2050.27 2068.94 2023.74 2068.94H1988.77C1962.24 2068.94 1940.74 2047.37 1940.74 2020.77V1985.68ZM1988.77 1953.56C1971.08 1953.56 1956.75 1967.94 1956.75 1985.68V2020.77C1956.75 2038.5 1971.08 2052.88 1988.77 2052.88H2023.74C2041.43 2052.88 2055.76 2038.5 2055.76 2020.77V1985.68C2055.76 1967.94 2041.43 1953.56 2023.74 1953.56H1988.77Z" clip-rule="evenodd"></path><path fill="#fff" d="M2134.55 1741.29V1169.12C2134.55 1146.94 2116.63 1128.97 2094.52 1128.97H1710.59C1699.97 1128.97 1689.79 1133.2 1682.29 1140.73L1606.55 1216.7C1599.05 1224.23 1594.83 1234.44 1594.83 1245.09V1741.29C1594.83 1763.47 1612.75 1781.44 1634.86 1781.44H2094.52C2116.63 1781.44 2134.55 1763.47 2134.55 1741.29Z"></path><path fill="#F4AD5E" fill-rule="evenodd" d="M1676.63 1135.05C1685.64 1126.01 1697.85 1120.94 1710.59 1120.94H2094.52C2121.05 1120.94 2142.55 1142.51 2142.55 1169.12V1741.29C2142.55 1767.9 2121.05 1789.47 2094.52 1789.47H1634.86C1608.33 1789.47 1586.83 1767.9 1586.83 1741.29V1245.09C1586.83 1232.31 1591.89 1220.06 1600.9 1211.02L1676.63 1135.05ZM1710.59 1137C1702.1 1137 1693.95 1140.38 1687.95 1146.4L1612.22 1222.38C1606.21 1228.4 1602.84 1236.57 1602.84 1245.09V1741.29C1602.84 1759.03 1617.17 1773.41 1634.86 1773.41H2094.52C2112.21 1773.41 2126.54 1759.03 2126.54 1741.29V1169.12C2126.54 1151.38 2112.21 1137 2094.52 1137H1710.59Z" clip-rule="evenodd"></path><path fill="#F4AD5E" d="M1597.14 1228.46L1696.32 1128.97V1204.37C1696.32 1217.67 1685.57 1228.46 1672.31 1228.46H1597.14Z"></path><path fill="#F4AD5E" fill-rule="evenodd" d="M1827.79 1264.25H1707.85V1248.19H1827.79V1264.25ZM2012.31 1375.31H1707.85V1359.25H2012.31V1375.31ZM2012.31 1470.18H1707.85V1454.12H2012.31V1470.18ZM2012.31 1567.35H1707.85V1551.29H2012.31V1567.35ZM1956.95 1657.59H1707.85V1641.53H1956.95V1657.59Z" clip-rule="evenodd"></path><path fill="#032068" d="M1308.38 2384.31L1342.56 2681.54H411.366L441.267 2384.31H1308.38Z"></path><path fill="#EFCB96" d="M778.716 1090.04L765.902 1201.1L770.173 1286.53L928.219 1303.61L996.564 1218.18L983.749 1090.04C1009.79 1075.16 1029.36 1034.35 1033.97 970.436C1042.86 967.589 1060.64 954.205 1060.64 923.45C1060.64 892.695 1041.15 882.158 1031.41 880.734C1017.54 777.049 963.753 739.774 872.69 739.774C785.385 739.774 738.051 796.876 723.685 880.734C713.552 879.311 693.286 885.86 693.286 923.45C693.286 961.039 711.491 970.436 720.594 970.436C728.944 1042.85 766.109 1079.95 778.716 1090.04Z"></path><path fill="#032068" d="M697.559 808.119C690.725 849.126 697.56 906.364 714.645 927.721L748.818 855.105C759.069 861.94 807.195 863.648 825.705 863.648C897.466 860.231 949.579 819.509 966.665 799.576C970.082 830.331 1016.5 912.059 1035.01 949.079C1057.79 914.907 1072.6 825.205 1052.1 739.775C1031.59 654.344 975.208 650.073 941.036 658.616C847.063 586 740.274 594.543 689.016 667.159C648.01 725.252 671.93 785.338 697.559 808.119Z"></path><path fill="#EFCB96" d="M501.684 2474.63C479.462 2453.65 469.02 2435.03 466.576 2428.34C439.135 2445.34 375.525 2457.07 355.836 2486.82C331.225 2524.01 381.945 2634.81 401.158 2645.07C420.37 2655.34 492.818 2637.05 511.257 2620.3C526.009 2606.91 512.978 2570.25 504.002 2555.65C513.698 2548.16 541.252 2544.58 539.647 2526.25C537.64 2503.33 529.461 2500.87 501.684 2474.63Z"></path><path fill="#F4AD5E" fill-rule="evenodd" d="M466.759 1265.27C463.976 1266.47 461.173 1267.86 458.351 1269.44C236.232 1406.13 103.815 1858.91 108.087 1961.43C112.358 2063.94 278.947 2508.18 321.662 2512.45C357.367 2516.02 464.697 2480.8 498.967 2446.69C606.989 2474.01 775.627 2474.01 898.317 2474.01C1107.62 2474.01 1312.65 2456.92 1346.83 2401.39C1358.3 2382.76 1345.4 2317.39 1334.01 2277.52C1359.64 2325.93 1442.51 2404.81 1568.94 2333.05C1726.99 2243.35 1654.37 1969.97 1521.96 1564.18C1416.02 1239.54 1141.79 1164.08 1017.92 1166.93C1017.92 1195.4 991.436 1252.36 885.502 1252.36C779.569 1252.36 755.933 1195.4 753.085 1166.93C701.827 1168.35 572.827 1189.99 466.894 1265.17C466.849 1265.2 466.804 1265.24 466.759 1265.27Z" clip-rule="evenodd"></path><path fill="#fff" d="M652.104 1347.51C652.147 1332.7 664.184 1320.74 678.991 1320.78L1050.93 1321.85C1065.74 1321.89 1077.7 1333.93 1077.66 1348.74L1076.2 1855.21C1076.16 1870.02 1064.12 1881.99 1049.32 1881.94L677.378 1880.87C662.571 1880.83 650.602 1868.79 650.645 1853.98L652.104 1347.51Z"></path><path fill="#032068" fill-rule="evenodd" d="M643.168 1347.48C643.224 1327.74 659.275 1311.78 679.017 1311.84L1050.96 1312.91C1070.7 1312.97 1086.66 1329.02 1086.6 1348.76L1085.14 1855.24C1085.08 1874.98 1069.03 1890.94 1049.29 1890.88L677.352 1889.81C657.61 1889.75 641.652 1873.7 641.709 1853.96L643.168 1347.48ZM678.965 1329.71C669.094 1329.69 661.069 1337.67 661.041 1347.54L659.582 1854.01C659.554 1863.88 667.533 1871.91 677.404 1871.94L1049.34 1873.01C1059.21 1873.03 1067.24 1865.06 1067.27 1855.18L1068.73 1348.71C1068.75 1338.84 1060.78 1330.81 1050.9 1330.79L678.965 1329.71Z" clip-rule="evenodd"></path><path fill="#032068" d="M1334.01 2281.79L1107.62 1884.54C1124.71 2029.77 1261.4 2273.25 1351.1 2371.49 1351.1 2350.99 1338.28 2296.03 1334.01 2281.79zM1470.7 1914.44C1407.64 1855.58 1274.22 1738.79 1237.46 1735.13 1236.89 1735.11 1236.33 1735.08 1235.77 1735.04 1236.31 1735.04 1236.87 1735.07 1237.46 1735.13 1254.23 1735.47 1274.21 1719.99 1274.21 1653.88 1316.93 1769.21 1440.8 1824.74 1470.7 1914.44z"></path><path fill="#EFCB96" d="M1111.89 1837.55L1222.95 1750.89C1209.35 1738.96 1178.05 1700.76 1161.72 1643.46C1145.39 1586.17 1103.2 1563.88 1084.15 1559.91V1615.61C1069.18 1602.35 1033.53 1579 1010.66 1591.74C982.086 1607.65 994.333 1734.98 998.416 1750.89C1002.5 1766.81 1055.57 1790.68 1075.98 1794.66C1092.31 1797.85 1099.08 1816.2 1111.89 1837.55Z"></path><path fill="#032068" d="M146.53 2123.75C214.874 1990.47 180.702 1806.23 155.073 1730.77 142.259 1779.18 114.921 1887.96 108.086 1935.8 101.252 1983.64 130.868 2081.03 146.53 2123.75zM1329.74 2268.98C1432.26 2193.8 1588.88 2200.63 1654.38 2213.45 1647.26 2244.77 1628.75 2316.62 1530.5 2354.41 1419.44 2397.12 1353.95 2313.12 1329.74 2268.98zM458.353 2012.69C461.77 1947.76 502.492 1791.99 522.425 1722.22 492.525 1799.11 415.638 1927.26 415.638 2012.69 415.638 2081.03 478.286 2314.54 509.611 2422.75 491.101 2313.12 454.935 2077.61 458.353 2012.69zM875.952 1129.36C821.277 1129.36 787.674 1102.31 777.707 1090.92L773.436 1133.63C869.117 1188.31 955.687 1156.42 987.011 1133.63L982.74 1090.92C969.925 1102.31 930.627 1129.36 875.952 1129.36z"></path><path fill="#fff" d="M2154.12 1972.63C2142.75 2242.04 2310.59 2537 2405.86 2664.19C2410.83 2670.83 2418.64 2674.59 2426.93 2674.59H2497.76C2513.83 2674.59 2526.27 2660.3 2524.16 2644.38C2461.05 2169.12 2286.16 1991.56 2183.74 1951.67C2169.2 1946.01 2154.77 1957.04 2154.12 1972.63Z"></path><path fill="#032068" fill-rule="evenodd" d="M2180.49 1960C2172.59 1956.92 2163.49 1962.5 2163.05 1973C2157.44 2105.87 2196.05 2245.56 2248.22 2368.24C2300.37 2490.85 2365.78 2595.76 2413.01 2658.83C2416.24 2663.13 2421.35 2665.66 2426.93 2665.66H2497.76C2508.39 2665.66 2516.71 2656.16 2515.3 2645.55C2452.36 2171.54 2278.38 1998.12 2180.49 1960ZM2145.19 1972.25C2146.06 1951.57 2165.8 1935.09 2186.98 1943.34C2293.93 1985 2469.75 2166.71 2533.02 2643.2C2535.84 2664.45 2519.27 2683.53 2497.76 2683.53H2426.93C2415.93 2683.53 2405.43 2678.52 2398.71 2669.54C2350.68 2605.42 2284.53 2499.26 2231.78 2375.24C2179.06 2251.29 2139.43 2108.8 2145.19 1972.25Z" clip-rule="evenodd"></path><path fill="#032068" d="M2690.36 1811.98C2469.9 2009.03 2425.75 2470.83 2426.4 2652.16C2426.45 2666.63 2438.32 2677.85 2452.79 2677.85H2518.37C2528.29 2677.85 2537.51 2672.19 2542.1 2663.39C2762.75 2240.39 2740.05 1977.72 2732.06 1831.28C2730.88 1809.77 2706.43 1797.61 2690.36 1811.98Z"></path><path fill="#fff" d="M2864.43 2224.24C2690.61 2307.3 2553.64 2512.61 2490.36 2637.32C2481.57 2654.64 2494.44 2674.59 2513.87 2674.59H2591.83C2597 2674.59 2602.1 2673.08 2606.41 2670.23C2795.8 2544.56 2874.26 2357.82 2896.76 2249.53C2900.74 2230.35 2882.1 2215.79 2864.43 2224.24Z"></path><path fill="#032068" fill-rule="evenodd" d="M2888.01 2247.71C2890.48 2235.81 2879.32 2227.03 2868.28 2232.3C2783.01 2273.06 2706.29 2344.07 2642.83 2420.85C2579.44 2497.56 2529.72 2579.49 2498.33 2641.36C2492.72 2652.42 2500.75 2665.66 2513.87 2665.66H2591.83C2595.28 2665.66 2598.66 2664.64 2601.47 2662.78L2606.41 2670.23L2601.47 2662.78C2788.4 2538.75 2865.85 2354.36 2888.01 2247.71ZM2860.58 2216.18C2884.89 2204.56 2911.01 2224.89 2905.51 2251.35C2882.67 2361.29 2803.19 2550.38 2611.35 2677.67C2605.55 2681.52 2598.72 2683.53 2591.83 2683.53H2513.87C2488.14 2683.53 2470.42 2656.86 2482.39 2633.27C2514.28 2570.43 2564.69 2487.36 2629.05 2409.47C2693.36 2331.66 2772.04 2258.49 2860.58 2216.18Z" clip-rule="evenodd"></path><path fill="#032068" fill-rule="evenodd" d="M2248.06 2055.93C2284.62 2105.55 2319.06 2173.49 2349.95 2247C2370.87 2296.79 2390.23 2349.33 2407.57 2400.78L2424.83 2345.67L2441.88 2351.01L2417.2 2429.85C2433.05 2478.57 2446.99 2525.68 2458.59 2567.82C2469.31 2606.75 2478.05 2641.46 2484.48 2669.32L2467.06 2673.34C2460.92 2646.72 2452.63 2613.69 2442.47 2576.62L2380.76 2548.98L2388.07 2532.67L2436.26 2554.25C2425.58 2516.4 2413.18 2475.13 2399.32 2432.67C2380.42 2374.76 2358.82 2314.7 2335.25 2258.18L2251.97 2239.61L2255.86 2222.16L2326.66 2237.95C2297.83 2171.26 2266.41 2110.96 2233.67 2066.53L2248.06 2055.93Z" clip-rule="evenodd"></path><path fill="#fff" fill-rule="evenodd" d="M2620.92 2116.99C2633.84 2070.65 2646.15 2028.72 2657.21 1994.09C2670.05 1953.89 2681.03 1924.21 2689.2 1908.82L2673.42 1900.44C2664.39 1917.43 2652.99 1948.58 2640.18 1988.65C2627.31 2028.95 2612.81 2078.93 2597.65 2134.03C2587.08 2172.48 2576.18 2213.45 2565.27 2255.41L2539.46 2194.76L2523.01 2201.76L2557.93 2283.8C2544.75 2335 2531.66 2387.16 2519.25 2437.55C2497.76 2524.79 2478.29 2606.75 2463.8 2669.31L2481.21 2673.35C2495.47 2611.78 2514.56 2531.4 2535.66 2445.69L2623.54 2398.63L2615.1 2382.87L2541.42 2422.33C2552.61 2377.13 2564.27 2330.82 2575.99 2285.32C2588.74 2235.83 2601.57 2187.3 2613.95 2142.19L2685.97 2098.22L2676.65 2082.97L2620.92 2116.99Z" clip-rule="evenodd"></path><path fill="#032068" fill-rule="evenodd" d="M2761.03 2371.56C2782.75 2348.98 2803.98 2328.95 2823.94 2312.89L2812.73 2298.96C2786.46 2320.11 2758.43 2347.58 2730.28 2378.18C2712.04 2398 2693.71 2419.2 2675.71 2440.93L2680.35 2411.73L2662.7 2408.93L2653.23 2468.58C2629.53 2498.21 2606.77 2528.2 2586.01 2556.54C2553.6 2600.8 2526.05 2641.08 2507.43 2669.72L2522.41 2679.46C2540.33 2651.9 2566.69 2613.32 2597.76 2570.76H2661.68V2552.89H2610.91C2629.07 2528.41 2648.54 2503 2668.66 2477.9C2692.37 2448.32 2716.95 2419.21 2741.31 2392.59L2803.35 2383.28L2800.7 2365.6L2761.03 2371.56Z" clip-rule="evenodd"></path></svg>